<svg xmlns="http://www.w3.org/2000/svg" width="788" height="768"><path fill="#53a4ed" d="M0 0h788v768H0z"/><path fill="#fff" d="M504 184c1.3 4.61.85 7.48-.85 11.9l-.68 1.8q-1.21 3.15-2.47 6.3l-.98 2.48q-3.5 8.88-7.08 17.72l-4.11 10.19-8.77 21.74-11.46 28.44-1.4 3.49a3778 3778 0 0 0-20.3 51.48 1823 1823 0 0 1-10.66 26.87l-1.39 3.46q-4.78 11.99-9.48 24a6405 6405 0 0 1-13.29 33.66q-3.06 7.72-6.08 15.47l-1.33 3.4-1.11 2.95-.93 2.45c-1.1 3.83-.69 6.36.37 10.2 2.83 4.16 5.97 6.5 10.19 9.19 16.08 10.75 24.5 26.66 28.56 45.25 1.3 18.47-1.24 35.91-13.61 50.4-10.98 12.12-24.87 20.88-41.43 22.37q-3.48.14-6.96.1l-2.5-.01c-15.92-.32-29.3-5.82-41.25-16.3l-1.9-1.65c-10.64-9.9-17.8-25.45-18.4-39.96-.26-20.8 6.11-36.46 18.98-52.68 2.66-3.44 5.16-7 7.7-10.52q5.54-7.73 11.2-15.4c10.45-13.45 10.45-13.45 12.42-29.79-1.7-6.57-3.9-12.97-6.22-19.34l-1.1-3.04-.98-2.58c-1.92-8.36-.42-15.2 2.82-22.97l1.1-2.76q1.67-4.16 3.38-8.31l1.86-4.65q2.4-5.96 4.8-11.88a6536 6536 0 0 0 23.75-59.12l1.22-3.05L410 249.18l2.17-5.46c11.66-29.47 11.66-29.47 20.83-39.72l1.98-2.27C448.76 186.95 484.96 168 504 184"/><path fill="#fff" d="M291.31 353.75c7.3 6.19 12.95 13.98 18.4 21.79 2.23 2.52 5.27 2.76 8.48 3.02 6.89 0 12.38-3.5 18.27-6.71A27 27 0 0 1 344 369l-.66 1.84c-5.21 16.42-1.66 29.5 4.02 45.17.64 1.99.64 1.99.64 3.99l-2.41.11-3.21.2-3.17.18c-6.92 1.1-11.57 5.2-16.77 9.57l-4.28 3.53-2.13 1.75c-3.9 3.18-7.9 6.22-11.9 9.26q-3.17 2.42-6.26 4.96c-17.08 13.89-34.8 20.06-56.87 18.44-17.47-2.23-30.99-12.33-41.94-25.5-9.74-13.3-13.85-30.59-11.6-46.83 3.33-17.47 11.28-33.18 25.8-43.9 24.76-16.02 54.19-15.95 78.05 1.98M573 254c4.96 3.83 6.47 7.85 7.48 13.9 1.78 20.24-3.78 38.97-16.6 54.71A171 171 0 0 1 557 330l-1.98 2.05C548 338.83 539.47 343.28 531 348l-3.13 1.75Q515.96 356.41 504 363q-4.62 2.55-9.25 5.13l-2.11 1.17q-9.03 5.02-18.01 10.14-11.45 6.49-22.94 12.87l-2.57 1.44-2.36 1.3-2.06 1.15c-1.7.8-1.7.8-3.7.8.68-4.14 1.97-7.8 3.5-11.71l.77-2.02 2.6-6.64.91-2.33q3.6-9.15 7.22-18.3l1.21-3.05a5304 5304 0 0 1 10.17-25.46q1.77-4.45 3.57-8.89l1.06-2.67c5.03-12.4 5.03-12.4 10.51-15.25l2.06-1.1 2.23-1.14 4.9-2.62 2.6-1.38c4.64-2.48 9.19-5.1 13.75-7.69l8.89-5.02q12.45-7.04 24.95-14 4.69-2.62 9.36-5.28l5.93-3.32 2.73-1.58c8.01-4.45 8.01-4.45 13.08-3.55"/><path fill="#53a4ed" d="M267.63 369.94c9.36 5.37 15.8 12.9 19.05 23.2 2.7 10.51 1.88 20.38-3.37 29.93A81 81 0 0 1 278 431h-2v2c-8.37 6.52-18.44 9.85-29 9a40.7 40.7 0 0 1-25-13c-7.42-10.48-9.22-20.4-8-33 2.22-9.86 8.83-18.24 17-24 11.3-6.53 24.69-7.66 36.63-2.06M399.75 495.75c8.2 5.82 12.18 13.49 14.25 23.25 1.22 11.18-.56 20.55-7.12 29.75-7.31 8.67-16.02 13.2-27.22 14.53-9.7.42-18.26-3.17-25.66-9.28-8.5-7.88-12.51-16.33-13.09-27.93.32-10.9 4.5-20.4 12.16-28.17 14.27-12.02 31.3-11.52 46.68-2.15M401.81 366.5A21.4 21.4 0 0 1 410 377c.88 5 .62 8.74-1.62 13.31-4.44 5.02-8.13 8.41-15.07 9-5.56-.1-9.75-2.09-13.92-5.71-3.88-4.47-4.07-9.03-3.81-14.8.77-5.15 3.23-7.73 6.98-11.11 5.48-3.8 13.26-4.18 19.25-1.19"/></svg>